<svg width="22" height="22" viewBox="0 0 22 22" fill="none" xmlns="http://www.w3.org/2000/svg">
<g id="vuesax/bold/chart">
<g id="vuesax/bold/chart_2">
<g id="chart">
<path id="Vector" d="M20.1666 20.1667H1.83331C1.45748 20.1667 1.14581 19.855 1.14581 19.4792C1.14581 19.1033 1.45748 18.7917 1.83331 18.7917H20.1666C20.5425 18.7917 20.8541 19.1033 20.8541 19.4792C20.8541 19.855 20.5425 20.1667 20.1666 20.1667Z" fill="#6F6F6F"/>
<path id="Vector_2" d="M8.9375 3.66667V20.1667H13.0625V3.66667C13.0625 2.65834 12.65 1.83334 11.4125 1.83334H10.5875C9.35 1.83334 8.9375 2.65834 8.9375 3.66667Z" fill="#6F6F6F"/>
<path id="Vector_3" d="M2.75 9.16667V20.1667H6.41667V9.16667C6.41667 8.15834 6.05 7.33334 4.95 7.33334H4.21667C3.11667 7.33334 2.75 8.15834 2.75 9.16667Z" fill="#6F6F6F"/>
<path id="Vector_4" d="M15.5833 13.75V20.1667H19.25V13.75C19.25 12.7417 18.8833 11.9167 17.7833 11.9167H17.05C15.95 11.9167 15.5833 12.7417 15.5833 13.75Z" fill="#6F6F6F"/>
</g>
</g>
</g>
</svg>
