<svg width="30" height="30" viewBox="0 0 30 30" fill="none" xmlns="http://www.w3.org/2000/svg">
<rect width="30" height="30" rx="4" fill="#F0F0F0"/>
<path fill-rule="evenodd" clip-rule="evenodd" d="M9.67819 17.954C9.9829 17.954 10.2299 18.201 10.2299 18.5057V19.977C10.2299 20.0786 10.3123 20.1609 10.4138 20.1609H19.2414C19.343 20.1609 19.4253 20.0786 19.4253 19.977V18.5057C19.4253 18.201 19.6723 17.954 19.977 17.954C20.2817 17.954 20.5288 18.201 20.5288 18.5057V19.977C20.5288 20.688 19.9524 21.2644 19.2414 21.2644H10.4138C9.70283 21.2644 9.12646 20.688 9.12646 19.977V18.5057C9.12646 18.201 9.37348 17.954 9.67819 17.954Z" fill="#6F6F6F"/>
<path d="M13.8992 8.75862C13.5208 8.75862 13.2052 9.04781 13.1721 9.42477C13.0591 10.7141 13.0391 12.0098 13.1124 13.3018C12.9307 13.3118 12.7491 13.3234 12.5676 13.3367L11.4718 13.4165C11.0494 13.4473 10.8132 13.9184 11.0413 14.2754C11.8225 15.498 12.8292 16.561 14.0077 17.4075L14.4466 17.7229C14.6743 17.8864 14.981 17.8864 15.2087 17.7229L15.6476 17.4075C16.8261 16.561 17.8328 15.498 18.614 14.2754C18.8421 13.9184 18.606 13.4473 18.1835 13.4165L17.0878 13.3367C16.9062 13.3234 16.7246 13.3118 16.5429 13.3018C16.6162 12.0098 16.5962 10.7141 16.4832 9.42476C16.4502 9.04781 16.1345 8.75862 15.7561 8.75862H13.8992Z" fill="#6F6F6F"/>
</svg>
