<svg width="197" height="197" viewBox="0 0 197 197" fill="none" xmlns="http://www.w3.org/2000/svg">
<g id="172622_user_female_icon 1" clip-path="url(#clip0_352_731)">
<path id="Vector" d="M98.4999 193.06C150.724 193.06 193.06 150.724 193.06 98.4999C193.06 46.2759 150.724 3.93994 98.4999 3.93994C46.2759 3.93994 3.93994 46.2759 3.93994 98.4999C3.93994 150.724 46.2759 193.06 98.4999 193.06Z" fill="#F3F3F3" stroke="#6F6F6F" stroke-width="0.5" stroke-miterlimit="10" stroke-linecap="round"/>
<path id="Vector_2" d="M117.936 139.98C117.834 138.85 117.759 137.033 117.7 135.15C134.819 133.397 146.828 129.291 146.828 124.508C146.781 124.5 146.785 124.311 146.785 124.232C133.988 112.7 157.88 30.7438 113.401 32.4065C110.608 30.0425 105.718 27.9425 98.7049 27.9425C38.4583 32.5011 65.0967 109.895 51.3697 124.504C51.3618 124.508 51.35 124.508 51.3421 124.508C51.3421 124.516 51.3461 124.524 51.3461 124.532L51.3421 124.539L51.35 124.543C51.4052 129.228 63.0085 133.259 79.6313 135.055C79.5841 136.198 79.4856 137.612 79.2689 139.98C74.2178 153.562 47.9143 154.413 33.3324 167.923C41.303 174.881 69.0761 193.564 98.8704 193.564C128.665 193.564 153.408 179.424 163.274 167.529C148.66 154.401 122.936 153.428 117.936 139.98Z" fill="#6F6F6F"/>
</g>
<defs>
<clipPath id="clip0_352_731">
<rect width="197" height="197" fill="white"/>
</clipPath>
</defs>
</svg>
